HIERARCHY
ROOT Hips
{
	OFFSET 0.00000 0.00000 0.00000
	CHANNELS 6 Xposition Yposition Zposition Zrotation Yrotation Xrotation 
	JOINT LHipJoint
	{
		OFFSET 0 0 0
		CHANNELS 3 Zrotation Yrotation Xrotation
		JOINT LeftUpLeg
		{
			OFFSET 1.86795 -1.59681 0.65681
			CHANNELS 3 Zrotation Yrotation Xrotation
			JOINT LeftLeg
			{
				OFFSET 2.30491 -6.33268 0.00000
				CHANNELS 3 Zrotation Yrotation Xrotation
				JOINT LeftFoot
				{
					OFFSET 2.46780 -6.78022 0.00000
					CHANNELS 3 Zrotation Yrotation Xrotation
					JOINT LeftToeBase
					{
						OFFSET 0.07897 -0.21698 1.59652
						CHANNELS 3 Zrotation Yrotation Xrotation
						End Site
						{
							OFFSET 0.00000 -0.00000 0.82310
						}
					}
				}
			}
		}
	}
	JOINT RHipJoint
	{
		OFFSET 0 0 0
		CHANNELS 3 Zrotation Yrotation Xrotation
		JOINT RightUpLeg
		{
			OFFSET -1.93650 -1.59681 0.65681
			CHANNELS 3 Zrotation Yrotation Xrotation
			JOINT RightLeg
			{
				OFFSET -2.29410 -6.30299 0.00000
				CHANNELS 3 Zrotation Yrotation Xrotation
				JOINT RightFoot
				{
					OFFSET -2.48738 -6.83403 0.00000
					CHANNELS 3 Zrotation Yrotation Xrotation
					JOINT RightToeBase
					{
						OFFSET -0.08699 -0.23899 1.89395
						CHANNELS 3 Zrotation Yrotation Xrotation
						End Site
						{
							OFFSET -0.00000 -0.00000 0.96904
						}
					}
				}
			}
		}
	}
	JOINT LowerBack
	{
		OFFSET 0 0 0
		CHANNELS 3 Zrotation Yrotation Xrotation
		JOINT Spine
		{
			OFFSET 0.03629 1.99740 -0.07548
			CHANNELS 3 Zrotation Yrotation Xrotation
			JOINT Spine1
			{
				OFFSET 0.03970 1.94298 0.17218
				CHANNELS 3 Zrotation Yrotation Xrotation
				JOINT Neck
				{
					OFFSET 0 0 0
					CHANNELS 3 Zrotation Yrotation Xrotation
					JOINT Neck1
					{
						OFFSET -0.05054 1.79469 0.04241
						CHANNELS 3 Zrotation Yrotation Xrotation
						JOINT Head
						{
							OFFSET 0.05195 1.78475 -0.22133
							CHANNELS 3 Zrotation Yrotation Xrotation
							End Site
							{
								OFFSET 0.02420 1.80711 -0.07950
							}
						}
					}
				}
				JOINT LeftShoulder
				{
					OFFSET 0 0 0
					CHANNELS 3 Zrotation Yrotation Xrotation
					JOINT LeftArm
					{
						OFFSET 2.92134 1.19850 0.36056
						CHANNELS 3 Zrotation Yrotation Xrotation
						JOINT LeftForeArm
						{
							OFFSET 4.84137 -0.00000 0.00000
							CHANNELS 3 Zrotation Yrotation Xrotation
							JOINT LeftHand
							{
								OFFSET 3.24520 -0.00000 -0.00000
								CHANNELS 3 Zrotation Yrotation Xrotation
								JOINT LeftFingerBase
								{
									OFFSET 0 0 0
									CHANNELS 3 Zrotation Yrotation Xrotation
									JOINT LeftHandIndex1
									{
										OFFSET 0.52122 -0.00000 0.00000
										CHANNELS 3 Zrotation Yrotation Xrotation
										End Site
										{
											OFFSET 0.42022 -0.00000 0.00000
										}
									}
								}
								JOINT LThumb
								{
									OFFSET 0 0 0
									CHANNELS 3 Zrotation Yrotation Xrotation
									End Site
									{
										OFFSET 0.42664 -0.00000 0.42664
									}
								}
							}
						}
					}
				}
				JOINT RightShoulder
				{
					OFFSET 0 0 0
					CHANNELS 3 Zrotation Yrotation Xrotation
					JOINT RightArm
					{
						OFFSET -2.84327 1.20795 0.50191
						CHANNELS 3 Zrotation Yrotation Xrotation
						JOINT RightForeArm
						{
							OFFSET -4.72284 -0.00000 0.00000
							CHANNELS 3 Zrotation Yrotation Xrotation
							JOINT RightHand
							{
								OFFSET -3.23459 -0.00000 0.00000
								CHANNELS 3 Zrotation Yrotation Xrotation
								JOINT RightFingerBase
								{
									OFFSET 0 0 0
									CHANNELS 3 Zrotation Yrotation Xrotation
									JOINT RightHandIndex1
									{
										OFFSET -0.30742 -0.00000 0.00000
										CHANNELS 3 Zrotation Yrotation Xrotation
										End Site
										{
											OFFSET -0.24785 -0.00000 0.00000
										}
									}
								}
								JOINT RThumb
								{
									OFFSET 0 0 0
									CHANNELS 3 Zrotation Yrotation Xrotation
									End Site
									{
										OFFSET -0.25163 -0.00000 0.25163
									}
								}
							}
						}
					}
				}
			}
		}
	}
}
MOTION
Frames: 13
Frame Time: .0083333
14.7697 16.1994 -23.9232 0 0 0 0 0 0 -21 0 0 0 0 0 0 0 0 0 0 0 0 0 0 21 0 0 0 0 0 0 0 0 0 0 0 0 0 0 0 0 0 0 0 0 0 0 -16 0 0 21 0 0 11 0 0 0 -8 0 0 0 0 0 0 0 0 0 0 0 0 0 0 0 0 0 0 0 0 8 0 0 0 0 0 0 0 0 0 0 0 0 0 0 0 0 0
14.7697 16.1994 -23.9232 0.6931 -19.6569 11.5757 0.0000 0.0000 0.0000 -10.8118 -19.9031 -21.2003 2.9110 10.5496 30.7754 -0.2881 14.4078 -16.8494 0.4203 4.1612 11.5305 0.0000 0.0000 0.0000 22.5946 26.4652 -17.3057 -1.6960 -8.2019 23.3289 1.8148 -24.1027 -17.0999 -0.4194 -4.1568 11.5183 1.1975 -1.5087 -0.1583 1.9180 -1.9552 -3.2687 1.3537 -0.9856 -3.2424 -6.7546 -0.8380 -4.5014 6.9068 -1.6203 16.7034 3.2088 -0.7453 5.8713 0.0000 -0.0000 0.0000 -46.5440 6.3894 78.1328 55.4959 -54.9851 -30.6217 -0.0000 -0.0000 9.1224 -25.9238 35.7558 -15.8565 -7.1250 0.0000 -0.0000 -61.9055 55.2948 -21.4918 0.0000 -0.0000 0.0000 32.8716 -5.6420 75.5421 -46.3119 51.3952 -23.2595 0.0000 -0.0000 -11.7786 -13.2501 24.2923 -5.5330 7.1250 -0.0000 -0.0000 9.8948 -5.4140 9.0562
14.7548 16.1955 -23.9288 0.7579 -19.6590 11.6506 0.0000 0.0000 0.0000 -10.8866 -19.9002 -21.7562 3.0376 10.7557 31.4602 -0.3450 14.8302 -16.7744 0.4238 4.1782 11.5786 0.0000 0.0000 0.0000 22.5414 26.6110 -17.4734 -1.7131 -8.2411 23.4488 1.8645 -24.3179 -16.9723 -0.3655 -3.8836 10.7494 1.4129 -1.4432 -0.2806 1.7464 -1.8736 -3.1264 1.0480 -0.9525 -3.0400 -6.5334 -0.9129 -4.9601 6.9804 -1.7394 16.8832 3.1895 -0.7758 6.0147 -0.0000 0.0000 0.0000 -45.6261 6.2548 77.4764 53.8720 -54.4426 -29.2961 -0.0000 -0.0000 9.8523 -23.7226 35.3910 -14.2788 -7.1250 0.0000 -0.0000 -59.7732 55.5425 -20.6707 -0.0000 0.0000 0.0000 32.5706 -5.8514 74.3856 -44.6655 50.6035 -21.9799 0.0000 -0.0000 -11.8048 -13.6603 24.1516 -5.6788 7.1250 -0.0000 -0.0000 9.6359 -5.5025 8.7956
14.7398 16.1933 -23.9358 0.7947 -19.6627 11.5556 0.0000 0.0000 0.0000 -10.9871 -19.7574 -22.1920 3.1871 10.9919 32.2526 -0.3220 14.8498 -17.1460 0.6246 5.0573 14.0721 0.0000 0.0000 0.0000 22.6298 26.6470 -17.3993 -1.7219 -8.2610 23.5098 1.9306 -24.5533 -16.5828 -0.3049 -3.5499 9.8137 1.4859 -1.4607 -0.1080 1.7558 -1.8924 -3.0406 1.0206 -0.9633 -3.0506 -6.4483 -0.8953 -5.0461 6.8023 -1.6872 16.8326 3.1207 -0.7559 6.0090 0.0000 -0.0000 0.0000 -44.9513 6.5124 76.7915 52.5446 -53.9716 -28.2194 -0.0000 -0.0000 9.9800 -21.4353 35.9124 -12.9681 -7.1250 0.0000 -0.0000 -58.5408 56.3605 -21.2645 0.0000 -0.0000 0.0000 31.9406 -5.9658 73.4487 -43.1887 49.8496 -20.8449 0.0000 -0.0000 -11.7998 -13.4358 23.8786 -5.5236 7.1250 -0.0000 -0.0000 9.7607 -5.8040 8.8561
14.7288 16.1906 -23.9483 0.8703 -19.4827 11.4970 0.0000 0.0000 0.0000 -11.1298 -19.6894 -22.7214 3.3331 11.2157 33.0108 -0.2911 14.8404 -17.5653 0.8410 5.8496 16.3485 0.0000 0.0000 0.0000 22.6250 26.5610 -17.4369 -1.7298 -8.2791 23.5649 1.9619 -24.6961 -16.5359 -0.3090 -3.5740 9.8811 1.4342 -1.5694 0.1791 1.8888 -2.0264 -3.1023 1.2004 -1.0272 -3.2692 -6.4680 -0.8839 -5.3068 6.4105 -1.6126 17.3338 3.0093 -0.7462 6.2065 -0.0000 0.0000 0.0000 -44.5008 6.8923 76.1962 50.9475 -53.3706 -26.9327 -0.0000 -0.0000 10.1637 -21.7546 36.1289 -13.2399 -7.1250 0.0000 -0.0000 -59.0475 56.4246 -21.6558 -0.0000 0.0000 0.0000 31.0405 -6.0376 72.7777 -41.6348 49.0092 -19.6644 0.0000 -0.0000 -11.7987 -12.8759 23.9347 -5.2983 7.1250 -0.0000 -0.0000 10.1082 -5.8174 9.1790
14.7199 16.1849 -23.9630 0.8329 -19.1587 11.6825 0.0000 0.0000 0.0000 -11.0744 -19.7483 -23.4986 3.4734 11.4246 33.7257 -0.2929 14.9131 -17.6665 0.8508 5.8827 16.4445 0.0000 0.0000 0.0000 22.6179 26.5441 -17.6821 -1.7274 -8.2735 23.5479 1.9474 -24.7422 -17.0564 -0.3715 -3.9148 10.8370 1.5445 -1.6723 0.3145 2.0082 -2.1515 -3.2690 1.2745 -1.0918 -3.5171 -6.7294 -0.8077 -5.0488 6.6880 -1.5211 16.9311 3.1438 -0.7011 6.0306 0.0000 -0.0000 0.0000 -43.9868 7.1604 75.7151 49.0583 -52.6086 -25.4241 -0.0000 -0.0000 10.5501 -22.0662 35.7831 -13.3346 -7.1250 0.0000 -0.0000 -58.9005 56.1422 -21.1301 0.0000 -0.0000 0.0000 30.2311 -6.2328 72.0737 -39.9969 48.0681 -18.4369 0.0000 -0.0000 -11.6316 -13.0081 24.1791 -5.4054 7.1250 -0.0000 -0.0000 10.0380 -5.5573 9.1637
14.7072 16.1803 -23.9665 0.7481 -19.1630 11.8591 0.0000 0.0000 0.0000 -11.0321 -19.5171 -24.1745 3.5983 11.6057 34.3511 -0.2777 14.7911 -17.6645 0.7429 5.5059 15.3572 0.0000 0.0000 0.0000 22.6973 26.6855 -17.7979 -1.7245 -8.2669 23.5277 1.9347 -24.7681 -17.4238 -0.3942 -4.0312 11.1645 1.6981 -1.6095 0.3420 2.0328 -2.0604 -3.3878 1.2149 -1.0511 -3.6614 -6.5246 -0.8162 -4.8312 6.3140 -1.5193 17.1801 2.9923 -0.7192 6.0687 0.0000 0.0000 0.0000 -43.3274 7.2821 75.2389 47.3752 -51.8804 -24.0933 -0.0000 -0.0000 10.6804 -19.8883 35.7904 -11.9458 -7.1250 0.0000 -0.0000 -57.1430 56.6239 -20.8744 0.0000 0.0000 0.0000 29.6547 -6.6149 71.1777 -38.4504 47.1245 -17.2949 0.0000 -0.0000 -11.6148 -15.3906 25.6058 -6.7843 7.1250 -0.0000 -0.0000 8.6665 -3.8079 8.1675
14.6906 16.1793 -23.9616 0.6760 -19.5889 11.8502 0.0000 0.0000 0.0000 -11.1417 -18.9266 -24.5556 3.7054 11.7577 34.8802 -0.1912 14.2138 -17.8695 0.6515 5.1632 14.3746 0.0000 0.0000 0.0000 22.8832 26.8723 -17.6622 -1.7263 -8.2710 23.5402 1.9150 -24.6709 -17.4134 -0.3924 -4.0223 11.1395 1.8454 -1.4264 0.3490 1.9713 -1.8137 -3.3871 1.0609 -0.9335 -3.6733 -6.3406 -0.8546 -4.6895 6.1292 -1.5765 17.3124 2.8998 -0.7518 6.0877 -0.0000 -0.0000 0.0000 -42.6350 7.4188 74.5360 45.8628 -51.1842 -22.9090 -0.0000 -0.0000 10.7484 -18.7416 35.5668 -11.1638 -7.1250 0.0000 -0.0000 -55.9445 56.7336 -20.3720 -0.0000 -0.0000 0.0000 29.2197 -6.9891 70.1712 -36.9741 46.1714 -16.2213 0.0000 -0.0000 -11.6777 -17.5386 26.8886 -8.1342 7.1250 -0.0000 -0.0000 7.4756 -2.1828 7.2481
14.6741 16.1757 -23.9633 0.6323 -20.0003 11.8311 0.0000 0.0000 0.0000 -11.2641 -18.4532 -24.8766 3.7883 11.8732 35.2850 -0.1039 13.5863 -18.0312 0.5927 4.9289 13.7058 0.0000 0.0000 0.0000 23.0316 26.9597 -17.6320 -1.7339 -8.2884 23.5934 1.8448 -24.3169 -17.3657 -0.4515 -4.3109 11.9531 1.8996 -1.3291 0.3909 1.9809 -1.6805 -3.4052 1.0372 -0.8688 -3.7177 -6.2712 -0.8854 -4.8131 5.9397 -1.6096 17.7921 2.8304 -0.7777 6.2620 0.0000 -0.0000 0.0000 -42.0935 7.7223 73.6016 44.3414 -50.4417 -21.7298 -0.0000 -0.0000 10.8305 -19.4207 35.3044 -11.5166 -7.1250 0.0000 -0.0000 -56.2093 56.4157 -20.0493 0.0000 -0.0000 0.0000 28.5948 -7.1509 69.2991 -35.5842 45.2248 -15.2266 0.0000 -0.0000 -11.9049 -17.4501 26.4164 -7.9611 7.1250 -0.0000 -0.0000 7.4866 -2.6758 7.1914
14.6611 16.1675 -23.9694 0.6229 -20.2024 11.9476 0.0000 0.0000 0.0000 -11.3483 -18.3126 -25.2909 3.8509 11.9593 35.5883 -0.0951 13.4034 -17.8679 0.4979 4.5237 12.5548 0.0000 0.0000 0.0000 23.0341 27.0815 -17.8324 -1.7486 -8.3216 23.6951 1.7926 -24.0445 -17.3083 -0.4923 -4.4985 12.4836 1.8537 -1.3088 0.3816 2.0637 -1.6522 -3.4225 1.1472 -0.8521 -3.7267 -6.3630 -0.6293 -4.7293 6.1247 -1.2749 17.5764 2.9255 -0.6084 6.1575 0.0000 0.0000 0.0000 -41.6437 7.9323 72.5016 42.7567 -49.6209 -20.5152 -0.0000 -0.0000 10.8974 -20.3951 34.9930 -12.0363 -7.1250 0.0000 -0.0000 -56.6594 56.0045 -19.6781 0.0000 0.0000 0.0000 27.8417 -7.1666 68.3155 -34.2868 44.2961 -14.3130 0.0000 -0.0000 -12.4574 -16.7606 26.0388 -7.5312 7.1250 -0.0000 -0.0000 7.8702 -3.1668 7.4956
14.6517 16.1667 -23.9735 0.8156 -20.2630 11.9869 0.0000 0.0000 0.0000 -11.6480 -18.4299 -25.6290 3.8985 12.0242 35.8175 -0.0951 13.2183 -17.5862 0.4792 4.4392 12.3158 0.0000 0.0000 0.0000 22.8002 27.2066 -18.0533 -1.7758 -8.3826 23.8823 1.7810 -24.0098 -17.3987 -0.4836 -4.4595 12.3732 1.7082 -1.2826 0.4074 2.0462 -1.6211 -3.3877 1.2092 -0.8322 -3.7015 -6.3892 -0.6164 -5.0056 6.1459 -1.2458 17.7015 2.9406 -0.5901 6.2436 0.0000 -0.0000 0.0000 -41.0961 7.9034 71.4303 41.0575 -48.6841 -19.2298 -0.0000 -0.0000 11.2002 -20.6907 33.9300 -11.9045 -7.1250 0.0000 -0.0000 -55.7427 55.2527 -18.0661 0.0000 -0.0000 0.0000 27.2168 -7.2758 67.0887 -32.9736 43.3097 -13.4039 0.0000 -0.0000 -12.8949 -14.7586 25.1399 -6.3857 7.1250 -0.0000 -0.0000 9.0198 -4.3656 8.4140
14.6433 16.1727 -23.9765 1.0779 -20.2038 11.9248 0.0000 0.0000 0.0000 -12.0392 -18.5910 -25.8911 3.9331 12.0709 35.9832 -0.0229 12.5757 -17.5901 0.5728 4.8468 13.4721 0.0000 0.0000 0.0000 22.5405 27.1493 -18.2451 -1.8108 -8.4603 24.1212 1.7728 -24.0164 -17.5790 -0.4595 -4.3485 12.0593 1.5901 -1.3212 0.5312 1.9965 -1.6723 -3.4302 1.2303 -0.8550 -3.8131 -6.3422 -0.5484 -5.0361 6.0305 -1.1393 17.7733 2.9037 -0.5439 6.2643 -0.0000 -0.0000 0.0000 -40.5500 8.0973 70.4039 39.3776 -47.6968 -17.9775 -0.0000 -0.0000 11.7378 -20.0238 32.7594 -11.1558 -7.1250 0.0000 -0.0000 -53.9785 54.6121 -16.2564 -0.0000 -0.0000 0.0000 26.6034 -7.3506 66.0837 -31.6119 42.2356 -12.4792 0.0000 -0.0000 -13.2947 -13.4411 24.0202 -5.5564 7.1250 -0.0000 -0.0000 9.7643 -5.6618 8.8864
14.6369 16.1693 -23.9797 1.1548 -20.1366 11.9554 0.0000 0.0000 0.0000 -12.2232 -18.6181 -26.2253 3.9589 12.1055 36.1062 0.0701 11.7746 -17.6816 0.6317 5.0856 14.1530 0.0000 0.0000 0.0000 22.4664 27.0656 -18.4749 -1.8450 -8.5355 24.3527 1.7351 -23.9002 -17.8450 -0.4789 -4.4380 12.3123 1.7045 -1.4059 0.5539 1.9857 -1.7805 -3.5172 1.1622 -0.9133 -3.9195 -6.4866 -0.3192 -4.6640 6.2303 -0.8578 17.5766 3.0077 -0.4077 6.1182 0.0000 0.0000 0.0000 -40.0052 8.5662 69.2240 37.9750 -46.8233 -16.9473 -0.0000 -0.0000 11.9919 -19.7981 32.2008 -10.8592 -7.1250 0.0000 -0.0000 -53.2305 54.2790 -15.4269 0.0000 0.0000 0.0000 26.0094 -7.2835 65.1548 -30.3005 41.1496 -11.6069 0.0000 -0.0000 -13.6482 -13.6186 23.8472 -5.5942 7.1250 -0.0000 -0.0000 9.6466 -5.8123 8.7479
